<?xml version="1.0" encoding="UTF-8"?>
<!DOCTYPE svg PUBLIC "-//W3C//DTD SVG 1.1//EN" "http://www.w3.org/Graphics/SVG/1.1/DTD/svg11.dtd">
<!-- Creator: CorelDRAW 2019 (64-Bit OEM Version) -->
<svg xmlns="http://www.w3.org/2000/svg" xml:space="preserve" width="95.7672mm" height="111.64mm" version="1.1" style="shape-rendering:geometricPrecision; text-rendering:geometricPrecision; image-rendering:optimizeQuality; fill-rule:evenodd; clip-rule:evenodd"
viewBox="0 0 9576.72 11164.04"
 xmlns:xlink="http://www.w3.org/1999/xlink"
 xmlns:xodm="http://www.corel.com/coreldraw/odm/2003">
 <defs>
  <style type="text/css">
   <![CDATA[
    .str0 {stroke:black;stroke-width:105.83;stroke-linecap:square;stroke-miterlimit:2.61313}
    .fil0 {fill:none}
   ]]>
  </style>
 </defs>
 <g id="Layer_x0020_1">
  <metadata id="CorelCorpID_0Corel-Layer"/>
  <g id="_1574292709728">
   <polygon class="fil0 str0" points="79.37,52.92 52.92,79.37 52.92,105.83 52.92,132.28 52.92,158.74 52.92,185.19 52.92,211.65 52.92,238.1 52.92,264.56 52.92,291.01 52.92,317.47 52.92,343.92 52.92,370.38 52.92,396.83 52.92,423.29 52.92,449.74 52.92,476.2 52.92,502.65 52.92,529.11 52.92,555.56 52.92,582.02 52.92,608.47 52.92,634.93 52.92,661.38 52.92,687.84 52.92,714.29 52.92,740.75 52.92,767.2 52.92,793.66 52.92,820.11 52.92,846.57 52.92,873.02 52.92,899.48 52.92,925.93 52.92,952.39 52.92,978.84 52.92,1005.3 52.92,1031.75 52.92,1058.21 52.92,1084.66 52.92,1111.12 79.37,1137.57 105.83,1137.57 132.28,1137.57 158.74,1137.57 185.19,1137.57 211.65,1137.57 238.1,1137.57 264.56,1137.57 291.01,1137.57 317.47,1137.57 343.92,1137.57 370.38,1137.57 396.83,1137.57 423.29,1137.57 449.74,1137.57 476.2,1137.57 502.65,1137.57 529.11,1137.57 555.56,1137.57 582.02,1137.57 608.47,1164.03 608.47,1190.48 608.47,1216.94 608.47,1243.39 608.47,1269.85 608.47,1296.3 608.47,1322.76 608.47,1349.21 608.47,1375.67 608.47,1402.12 608.47,1428.58 608.47,1455.03 608.47,1481.49 608.47,1507.94 608.47,1534.4 608.47,1560.85 608.47,1587.31 608.47,1613.76 608.47,1640.22 608.47,1666.67 608.47,1693.13 608.47,1719.58 608.47,1746.04 608.47,1772.49 608.47,1798.95 608.47,1825.4 608.47,1851.86 608.47,1878.31 608.47,1904.77 608.47,1931.22 608.47,1957.68 608.47,1984.13 608.47,2010.59 608.47,2037.04 608.47,2063.5 608.47,2089.95 608.47,2116.41 608.47,2142.86 608.47,2169.32 582.02,2195.77 555.56,2195.77 529.11,2195.77 502.65,2195.77 476.2,2195.77 449.74,2195.77 423.29,2195.77 396.83,2195.77 370.38,2195.77 343.92,2195.77 317.47,2195.77 291.01,2195.77 264.56,2195.77 238.1,2195.77 211.65,2195.77 185.19,2195.77 158.74,2195.77 132.28,2195.77 105.83,2195.77 79.37,2195.77 52.92,2222.23 52.92,2248.68 52.92,2275.14 52.92,2301.59 52.92,2328.05 52.92,2354.5 52.92,2380.96 52.92,2407.41 52.92,2433.87 52.92,2460.32 52.92,2486.78 52.92,2513.23 52.92,2539.69 52.92,2566.14 52.92,2592.6 52.92,2619.05 52.92,2645.51 52.92,2671.96 52.92,2698.42 52.92,2724.88 52.92,2751.33 52.92,2777.79 52.92,2804.24 52.92,2830.7 52.92,2857.15 52.92,2883.61 52.92,2910.06 52.92,2936.52 52.92,2962.97 52.92,2989.43 52.92,3015.88 52.92,3042.34 52.92,3068.79 52.92,3095.25 52.92,3121.7 52.92,3148.16 52.92,3174.61 52.92,3201.07 52.92,3227.52 52.92,3253.98 52.92,3280.43 52.92,3306.89 52.92,3333.34 52.92,3359.8 52.92,3386.25 52.92,3412.71 52.92,3439.16 52.92,3465.62 52.92,3492.07 52.92,3518.53 52.92,3544.98 52.92,3571.44 52.92,3597.89 52.92,3624.35 52.92,3650.8 52.92,3677.26 52.92,3703.71 52.92,3730.17 52.92,3756.62 52.92,3783.08 52.92,3809.53 52.92,3835.99 52.92,3862.44 52.92,3888.9 52.92,3915.35 52.92,3941.81 52.92,3968.26 52.92,3994.72 52.92,4021.17 52.92,4047.63 52.92,4074.08 52.92,4100.54 52.92,4126.99 52.92,4153.45 52.92,4179.9 52.92,4206.36 52.92,4232.81 52.92,4259.27 52.92,4285.72 52.92,4312.18 52.92,4338.63 52.92,4365.09 52.92,4391.54 52.92,4418 52.92,4444.45 52.92,4470.91 52.92,4497.36 52.92,4523.82 52.92,4550.27 52.92,4576.73 52.92,4603.18 52.92,4629.64 52.92,4656.09 52.92,4682.55 52.92,4709 52.92,4735.46 52.92,4761.91 79.37,4788.37 105.83,4788.37 132.28,4788.37 158.74,4788.37 185.19,4788.37 211.65,4788.37 238.1,4788.37 264.56,4788.37 291.01,4788.37 317.47,4788.37 343.92,4788.37 370.38,4788.37 396.83,4788.37 423.29,4788.37 449.74,4788.37 476.2,4788.37 502.65,4788.37 529.11,4788.37 555.56,4788.37 582.02,4788.37 608.47,4814.82 608.47,4841.28 608.47,4867.73 608.47,4894.19 608.47,4920.64 608.47,4947.1 608.47,4973.55 608.47,5000.01 608.47,5026.46 608.47,5052.92 608.47,5079.37 608.47,5105.83 608.47,5132.28 608.47,5158.74 608.47,5185.19 608.47,5211.65 608.47,5238.1 608.47,5264.56 608.47,5291.01 608.47,5317.47 608.47,5343.92 608.47,5370.38 608.47,5396.83 608.47,5423.29 608.47,5449.74 608.47,5476.2 608.47,5502.65 608.47,5529.11 608.47,5555.56 608.47,5582.02 608.47,5608.47 608.47,5634.93 608.47,5661.38 608.47,5687.84 608.47,5714.29 608.47,5740.75 608.47,5767.2 608.47,5793.66 608.47,5820.11 582.02,5846.57 555.56,5846.57 529.11,5846.57 502.65,5846.57 476.2,5846.57 449.74,5846.57 423.29,5846.57 396.83,5846.57 370.38,5846.57 343.92,5846.57 317.47,5846.57 291.01,5846.57 264.56,5846.57 238.1,5846.57 211.65,5846.57 185.19,5846.57 158.74,5846.57 132.28,5846.57 105.83,5846.57 79.37,5846.57 52.92,5873.02 52.92,5899.48 52.92,5925.93 52.92,5952.39 52.92,5978.84 52.92,6005.3 52.92,6031.75 52.92,6058.21 52.92,6084.66 52.92,6111.12 52.92,6137.57 52.92,6164.03 52.92,6190.48 52.92,6216.94 52.92,6243.39 52.92,6269.85 52.92,6296.3 52.92,6322.76 52.92,6349.21 52.92,6375.67 52.92,6402.12 52.92,6428.58 52.92,6455.03 52.92,6481.49 52.92,6507.94 52.92,6534.4 52.92,6560.85 52.92,6587.31 52.92,6613.76 52.92,6640.22 52.92,6666.67 52.92,6693.13 52.92,6719.58 52.92,6746.04 52.92,6772.49 52.92,6798.95 52.92,6825.4 52.92,6851.86 52.92,6878.31 52.92,6904.77 52.92,6931.22 52.92,6957.68 52.92,6984.13 52.92,7010.59 52.92,7037.04 52.92,7063.5 52.92,7089.95 52.92,7116.41 52.92,7142.86 52.92,7169.32 52.92,7195.77 52.92,7222.23 52.92,7248.68 52.92,7275.14 52.92,7301.59 52.92,7328.05 52.92,7354.5 52.92,7380.96 52.92,7407.41 52.92,7433.87 52.92,7460.32 52.92,7486.78 52.92,7513.23 52.92,7539.69 52.92,7566.14 52.92,7592.6 52.92,7619.05 52.92,7645.51 52.92,7671.96 52.92,7698.42 52.92,7724.87 52.92,7751.33 52.92,7777.78 52.92,7804.24 52.92,7830.69 52.92,7857.15 52.92,7883.6 52.92,7910.06 52.92,7936.51 52.92,7962.97 52.92,7989.42 52.92,8015.88 52.92,8042.33 52.92,8068.79 52.92,8095.24 52.92,8121.7 52.92,8148.15 52.92,8174.61 52.92,8201.06 52.92,8227.52 52.92,8253.97 52.92,8280.43 52.92,8306.88 52.92,8333.34 52.92,8359.8 52.92,8386.25 52.92,8412.71 79.37,8439.16 105.83,8439.16 132.28,8439.16 158.74,8439.16 185.19,8439.16 211.65,8439.16 238.1,8439.16 264.56,8439.16 291.01,8439.16 317.47,8439.16 343.92,8439.16 370.38,8439.16 396.83,8439.16 423.29,8439.16 449.74,8439.16 476.2,8439.16 502.65,8439.16 529.11,8439.16 555.56,8439.16 582.02,8439.16 608.47,8465.62 608.47,8492.07 608.47,8518.53 608.47,8544.98 608.47,8571.44 608.47,8597.89 608.47,8624.35 608.47,8650.8 608.47,8677.26 608.47,8703.71 608.47,8730.17 608.47,8756.62 608.47,8783.08 608.47,8809.53 608.47,8835.99 608.47,8862.44 608.47,8888.9 608.47,8915.35 608.47,8941.81 608.47,8968.26 608.47,8994.72 608.47,9021.17 608.47,9047.63 608.47,9074.08 608.47,9100.54 608.47,9126.99 608.47,9153.45 608.47,9179.9 608.47,9206.36 608.47,9232.81 608.47,9259.27 608.47,9285.72 608.47,9312.18 608.47,9338.63 608.47,9365.09 608.47,9391.54 608.47,9418 608.47,9444.45 608.47,9470.91 582.02,9497.36 555.56,9497.36 529.11,9497.36 502.65,9497.36 476.2,9497.36 449.74,9497.36 423.29,9497.36 396.83,9497.36 370.38,9497.36 343.92,9497.36 317.47,9497.36 291.01,9497.36 264.56,9497.36 238.1,9497.36 211.65,9497.36 185.19,9497.36 158.74,9497.36 132.28,9497.36 105.83,9497.36 79.37,9497.36 52.92,9523.82 52.92,9550.27 52.92,9576.73 52.92,9603.18 52.92,9629.64 52.92,9656.09 52.92,9682.55 52.92,9709 52.92,9735.46 52.92,9761.91 52.92,9788.37 52.92,9814.82 52.92,9841.28 52.92,9867.73 52.92,9894.19 52.92,9920.64 52.92,9947.1 52.92,9973.55 52.92,10000.01 52.92,10026.46 52.92,10052.92 52.92,10079.37 52.92,10105.83 52.92,10132.28 52.92,10158.74 52.92,10185.19 52.92,10211.65 52.92,10238.1 52.92,10264.56 52.92,10291.01 52.92,10317.47 52.92,10343.92 52.92,10370.38 52.92,10396.83 52.92,10423.29 52.92,10449.74 52.92,10476.2 52.92,10502.65 52.92,10529.11 52.92,10555.56 79.37,10582.02 105.83,10582.02 132.28,10582.02 158.74,10582.02 185.19,10582.02 211.65,10582.02 238.1,10582.02 264.56,10582.02 291.01,10582.02 317.47,10582.02 343.92,10582.02 370.38,10582.02 396.83,10582.02 423.29,10582.02 449.74,10582.02 476.2,10582.02 502.65,10582.02 529.11,10582.02 555.56,10582.02 582.02,10582.02 608.47,10582.02 634.93,10582.02 661.38,10582.02 687.84,10582.02 714.29,10582.02 740.75,10582.02 767.2,10582.02 793.66,10582.02 820.11,10582.02 846.57,10582.02 873.02,10582.02 899.48,10582.02 925.93,10582.02 952.39,10582.02 978.84,10582.02 1005.3,10582.02 1031.75,10582.02 1058.21,10582.02 1084.66,10582.02 1111.12,10582.02 1137.57,10608.47 1137.57,10634.93 1137.57,10661.38 1137.57,10687.84 1137.57,10714.29 1137.57,10740.75 1137.57,10767.2 1137.57,10793.66 1137.57,10820.11 1137.57,10846.57 1137.57,10873.02 1137.57,10899.48 1137.57,10925.93 1137.57,10952.39 1137.57,10978.84 1137.57,11005.3 1137.57,11031.75 1137.57,11058.21 1137.57,11084.66 1164.03,11111.12 1190.48,11111.12 1216.94,11111.12 1243.39,11111.12 1269.85,11111.12 1296.3,11111.12 1322.76,11111.12 1349.21,11111.12 1375.67,11111.12 1402.12,11111.12 1428.58,11111.12 1455.03,11111.12 1481.49,11111.12 1507.94,11111.12 1534.4,11111.12 1560.85,11111.12 1587.31,11111.12 1613.76,11111.12 1640.22,11111.12 1666.67,11111.12 1693.13,11111.12 1719.58,11111.12 1746.04,11111.12 1772.49,11111.12 1798.95,11111.12 1825.4,11111.12 1851.86,11111.12 1878.31,11111.12 1904.77,11111.12 1931.22,11111.12 1957.68,11111.12 1984.13,11111.12 2010.59,11111.12 2037.04,11111.12 2063.5,11111.12 2089.95,11111.12 2116.41,11111.12 2142.86,11111.12 2169.32,11111.12 2195.77,11084.66 2195.77,11058.21 2195.77,11031.75 2195.77,11005.3 2195.77,10978.84 2195.77,10952.39 2195.77,10925.93 2195.77,10899.48 2195.77,10873.02 2195.77,10846.57 2195.77,10820.11 2195.77,10793.66 2195.77,10767.2 2195.77,10740.75 2195.77,10714.29 2195.77,10687.84 2195.77,10661.38 2195.77,10634.93 2195.77,10608.47 2222.23,10582.02 2248.68,10582.02 2275.14,10582.02 2301.59,10582.02 2328.05,10582.02 2354.5,10582.02 2380.96,10582.02 2407.41,10582.02 2433.87,10582.02 2460.32,10582.02 2486.78,10582.02 2513.23,10582.02 2539.69,10582.02 2566.14,10582.02 2592.6,10582.02 2619.05,10582.02 2645.51,10582.02 2671.96,10582.02 2698.42,10582.02 2724.87,10582.02 2751.33,10582.02 2777.78,10582.02 2804.24,10582.02 2830.69,10582.02 2857.15,10582.02 2883.6,10582.02 2910.06,10582.02 2936.51,10582.02 2962.97,10582.02 2989.42,10582.02 3015.88,10582.02 3042.33,10582.02 3068.79,10582.02 3095.24,10582.02 3121.7,10582.02 3148.15,10582.02 3174.61,10582.02 3201.06,10582.02 3227.52,10582.02 3253.97,10582.02 3280.43,10582.02 3306.88,10582.02 3333.34,10582.02 3359.79,10582.02 3386.25,10582.02 3412.7,10582.02 3439.16,10582.02 3465.61,10582.02 3492.07,10582.02 3518.52,10582.02 3544.98,10582.02 3571.43,10582.02 3597.89,10582.02 3624.34,10582.02 3650.8,10582.02 3677.25,10582.02 3703.71,10582.02 3730.16,10582.02 3756.62,10582.02 3783.07,10582.02 3809.53,10582.02 3835.98,10582.02 3862.44,10582.02 3888.89,10582.02 3915.35,10582.02 3941.8,10582.02 3968.26,10582.02 3994.71,10582.02 4021.17,10582.02 4047.62,10608.47 4047.62,10634.93 4047.62,10661.38 4047.62,10687.84 4047.62,10714.29 4047.62,10740.75 4047.62,10767.2 4047.62,10793.66 4047.62,10820.11 4047.62,10846.57 4047.62,10873.02 4047.62,10899.48 4047.62,10925.93 4047.62,10952.39 4047.62,10978.84 4047.62,11005.3 4047.62,11031.75 4047.62,11058.21 4047.62,11084.66 4074.08,11111.12 4100.53,11111.12 4126.99,11111.12 4153.44,11111.12 4179.9,11111.12 4206.35,11111.12 4232.81,11111.12 4259.26,11111.12 4285.72,11111.12 4312.17,11111.12 4338.63,11111.12 4365.08,11111.12 4391.54,11111.12 4417.99,11111.12 4444.45,11111.12 4470.9,11111.12 4497.36,11111.12 4523.81,11111.12 4550.27,11111.12 4576.72,11111.12 4603.18,11111.12 4629.63,11111.12 4656.09,11111.12 4682.54,11111.12 4709,11111.12 4735.45,11111.12 4761.9,11111.12 4788.36,11111.12 4814.81,11111.12 4841.27,11111.12 4867.72,11111.12 4894.18,11111.12 4920.63,11111.12 4947.09,11111.12 4973.54,11111.12 5000,11111.12 5026.45,11111.12 5052.91,11111.12 5079.36,11111.12 5105.82,11111.12 5132.27,11084.66 5132.27,11058.21 5132.27,11031.75 5132.27,11005.3 5132.27,10978.84 5132.27,10952.39 5132.27,10925.93 5132.27,10899.48 5132.27,10873.02 5132.27,10846.57 5132.27,10820.11 5132.27,10793.66 5132.27,10767.2 5132.27,10740.75 5132.27,10714.29 5132.27,10687.84 5132.27,10661.38 5132.27,10634.93 5132.27,10608.47 5158.73,10582.02 5185.18,10582.02 5211.64,10582.02 5238.09,10582.02 5264.55,10582.02 5291,10582.02 5317.46,10582.02 5343.91,10582.02 5370.37,10582.02 5396.82,10582.02 5423.28,10582.02 5449.73,10582.02 5476.19,10582.02 5502.64,10582.02 5529.1,10582.02 5555.55,10582.02 5582.01,10582.02 5608.46,10582.02 5634.92,10582.02 5661.37,10582.02 5687.83,10582.02 5714.28,10582.02 5740.74,10582.02 5767.19,10582.02 5793.65,10582.02 5820.1,10582.02 5846.56,10582.02 5873.01,10582.02 5899.47,10582.02 5925.92,10582.02 5952.38,10582.02 5978.83,10582.02 6005.29,10582.02 6031.74,10582.02 6058.2,10582.02 6084.65,10582.02 6111.11,10582.02 6137.56,10582.02 6164.02,10582.02 6190.47,10582.02 6216.93,10582.02 6243.38,10582.02 6269.84,10582.02 6296.29,10582.02 6322.75,10582.02 6349.2,10582.02 6375.66,10582.02 6402.11,10582.02 6428.57,10582.02 6455.02,10582.02 6481.48,10582.02 6507.93,10582.02 6534.39,10582.02 6560.84,10582.02 6587.3,10582.02 6613.75,10582.02 6640.21,10582.02 6666.66,10582.02 6693.12,10582.02 6719.57,10582.02 6746.03,10582.02 6772.48,10582.02 6798.94,10582.02 6825.39,10582.02 6851.85,10582.02 6878.3,10582.02 6904.76,10582.02 6931.21,10582.02 6957.67,10582.02 6984.12,10608.47 6984.12,10634.93 6984.12,10661.38 6984.12,10687.84 6984.12,10714.29 6984.12,10740.75 6984.12,10767.2 6984.12,10793.66 6984.12,10820.11 6984.12,10846.57 6984.12,10873.02 6984.12,10899.48 6984.12,10925.93 6984.12,10952.39 6984.12,10978.84 6984.12,11005.3 6984.12,11031.75 6984.12,11058.21 6984.12,11084.66 7010.58,11111.12 7037.03,11111.12 7063.49,11111.12 7089.94,11111.12 7116.4,11111.12 7142.85,11111.12 7169.31,11111.12 7195.76,11111.12 7222.22,11111.12 7248.67,11111.12 7275.13,11111.12 7301.58,11111.12 7328.04,11111.12 7354.49,11111.12 7380.95,11111.12 7407.4,11111.12 7433.86,11111.12 7460.31,11111.12 7486.77,11111.12 7513.22,11111.12 7539.68,11111.12 7566.13,11111.12 7592.59,11111.12 7619.04,11111.12 7645.5,11111.12 7671.95,11111.12 7698.41,11111.12 7724.86,11111.12 7751.32,11111.12 7777.77,11111.12 7804.23,11111.12 7830.68,11111.12 7857.14,11111.12 7883.59,11111.12 7910.05,11111.12 7936.5,11111.12 7962.96,11111.12 7989.41,11111.12 8015.87,11111.12 8042.32,11084.66 8042.32,11058.21 8042.32,11031.75 8042.32,11005.3 8042.32,10978.84 8042.32,10952.39 8042.32,10925.93 8042.32,10899.48 8042.32,10873.02 8042.32,10846.57 8042.32,10820.11 8042.32,10793.66 8042.32,10767.2 8042.32,10740.75 8042.32,10714.29 8042.32,10687.84 8042.32,10661.38 8042.32,10634.93 8042.32,10608.47 8068.78,10582.02 8095.23,10582.02 8121.69,10582.02 8148.14,10582.02 8174.6,10582.02 8201.05,10582.02 8227.51,10582.02 8253.96,10582.02 8280.42,10582.02 8306.87,10582.02 8333.33,10582.02 8359.78,10582.02 8386.24,10582.02 8412.69,10582.02 8439.15,10582.02 8465.6,10582.02 8492.06,10582.02 8518.51,10582.02 8544.97,10582.02 8571.42,10582.02 8597.88,10582.02 8624.33,10582.02 8650.79,10582.02 8677.24,10582.02 8703.7,10582.02 8730.15,10582.02 8756.61,10582.02 8783.06,10582.02 8809.52,10582.02 8835.97,10582.02 8862.43,10582.02 8888.88,10582.02 8915.34,10582.02 8941.79,10582.02 8968.25,10555.56 8968.25,10529.11 8968.25,10502.65 8968.25,10476.2 8968.25,10449.74 8968.25,10423.29 8968.25,10396.83 8968.25,10370.38 8968.25,10343.92 8968.25,10317.47 8968.25,10291.01 8968.25,10264.56 8968.25,10238.1 8968.25,10211.65 8968.25,10185.19 8968.25,10158.74 8968.25,10132.28 8968.25,10105.83 8968.25,10079.37 8968.25,10052.92 8968.25,10026.46 8968.25,10000.01 8968.25,9973.55 8968.25,9947.1 8968.25,9920.64 8968.25,9894.19 8968.25,9867.73 8968.25,9841.28 8968.25,9814.82 8968.25,9788.37 8968.25,9761.91 8968.25,9735.46 8968.25,9709 8968.25,9682.55 8968.25,9656.09 8968.25,9629.64 8968.25,9603.18 8968.25,9576.73 8968.25,9550.27 8968.25,9523.82 8994.7,9497.36 9021.16,9497.36 9047.61,9497.36 9074.07,9497.36 9100.52,9497.36 9126.98,9497.36 9153.43,9497.36 9179.89,9497.36 9206.34,9497.36 9232.8,9497.36 9259.25,9497.36 9285.71,9497.36 9312.16,9497.36 9338.62,9497.36 9365.07,9497.36 9391.53,9497.36 9417.98,9497.36 9444.44,9497.36 9470.89,9497.36 9497.35,9497.36 9523.8,9470.91 9523.8,9444.45 9523.8,9418 9523.8,9391.54 9523.8,9365.09 9523.8,9338.63 9523.8,9312.18 9523.8,9285.72 9523.8,9259.27 9523.8,9232.81 9523.8,9206.36 9523.8,9179.9 9523.8,9153.45 9523.8,9126.99 9523.8,9100.54 9523.8,9074.08 9523.8,9047.63 9523.8,9021.17 9523.8,8994.72 9523.8,8968.26 9523.8,8941.81 9523.8,8915.35 9523.8,8888.9 9523.8,8862.44 9523.8,8835.99 9523.8,8809.53 9523.8,8783.08 9523.8,8756.62 9523.8,8730.17 9523.8,8703.71 9523.8,8677.26 9523.8,8650.8 9523.8,8624.35 9523.8,8597.89 9523.8,8571.44 9523.8,8544.98 9523.8,8518.53 9523.8,8492.07 9523.8,8465.62 9497.35,8439.16 9470.89,8439.16 9444.44,8439.16 9417.98,8439.16 9391.53,8439.16 9365.07,8439.16 9338.62,8439.16 9312.16,8439.16 9285.71,8439.16 9259.25,8439.16 9232.8,8439.16 9206.34,8439.16 9179.89,8439.16 9153.43,8439.16 9126.98,8439.16 9100.52,8439.16 9074.07,8439.16 9047.61,8439.16 9021.16,8439.16 8994.7,8439.16 8968.25,8412.71 8968.25,8386.25 8968.25,8359.8 8968.25,8333.34 8968.25,8306.88 8968.25,8280.43 8968.25,8253.97 8968.25,8227.52 8968.25,8201.06 8968.25,8174.61 8968.25,8148.15 8968.25,8121.7 8968.25,8095.24 8968.25,8068.79 8968.25,8042.33 8968.25,8015.88 8968.25,7989.42 8968.25,7962.97 8968.25,7936.51 8968.25,7910.06 8968.25,7883.6 8968.25,7857.15 8968.25,7830.69 8968.25,7804.24 8968.25,7777.78 8968.25,7751.33 8968.25,7724.87 8968.25,7698.42 8968.25,7671.96 8968.25,7645.51 8968.25,7619.05 8968.25,7592.6 8968.25,7566.14 8968.25,7539.69 8968.25,7513.23 8968.25,7486.78 8968.25,7460.32 8968.25,7433.87 8968.25,7407.41 8968.25,7380.96 8968.25,7354.5 8968.25,7328.05 8968.25,7301.59 8968.25,7275.14 8968.25,7248.68 8968.25,7222.23 8968.25,7195.77 8968.25,7169.32 8968.25,7142.86 8968.25,7116.41 8968.25,7089.95 8968.25,7063.5 8968.25,7037.04 8968.25,7010.59 8968.25,6984.13 8968.25,6957.68 8968.25,6931.22 8968.25,6904.77 8968.25,6878.31 8968.25,6851.86 8968.25,6825.4 8968.25,6798.95 8968.25,6772.49 8968.25,6746.04 8968.25,6719.58 8968.25,6693.13 8968.25,6666.67 8968.25,6640.22 8968.25,6613.76 8968.25,6587.31 8968.25,6560.85 8968.25,6534.4 8968.25,6507.94 8968.25,6481.49 8968.25,6455.03 8968.25,6428.58 8968.25,6402.12 8968.25,6375.67 8968.25,6349.21 8968.25,6322.76 8968.25,6296.3 8968.25,6269.85 8968.25,6243.39 8968.25,6216.94 8968.25,6190.48 8968.25,6164.03 8968.25,6137.57 8968.25,6111.12 8968.25,6084.66 8968.25,6058.21 8968.25,6031.75 8968.25,6005.3 8968.25,5978.84 8968.25,5952.39 8968.25,5925.93 8968.25,5899.48 8968.25,5873.02 8994.7,5846.57 9021.16,5846.57 9047.61,5846.57 9074.07,5846.57 9100.52,5846.57 9126.98,5846.57 9153.43,5846.57 9179.89,5846.57 9206.34,5846.57 9232.8,5846.57 9259.25,5846.57 9285.71,5846.57 9312.16,5846.57 9338.62,5846.57 9365.07,5846.57 9391.53,5846.57 9417.98,5846.57 9444.44,5846.57 9470.89,5846.57 9497.35,5846.57 9523.8,5820.11 9523.8,5793.66 9523.8,5767.2 9523.8,5740.75 9523.8,5714.29 9523.8,5687.84 9523.8,5661.38 9523.8,5634.93 9523.8,5608.47 9523.8,5582.02 9523.8,5555.56 9523.8,5529.11 9523.8,5502.65 9523.8,5476.2 9523.8,5449.74 9523.8,5423.29 9523.8,5396.83 9523.8,5370.38 9523.8,5343.92 9523.8,5317.47 9523.8,5291.01 9523.8,5264.56 9523.8,5238.1 9523.8,5211.65 9523.8,5185.19 9523.8,5158.74 9523.8,5132.28 9523.8,5105.83 9523.8,5079.37 9523.8,5052.92 9523.8,5026.46 9523.8,5000.01 9523.8,4973.55 9523.8,4947.1 9523.8,4920.64 9523.8,4894.19 9523.8,4867.73 9523.8,4841.28 9523.8,4814.82 9497.35,4788.37 9470.89,4788.37 9444.44,4788.37 9417.98,4788.37 9391.53,4788.37 9365.07,4788.37 9338.62,4788.37 9312.16,4788.37 9285.71,4788.37 9259.25,4788.37 9232.8,4788.37 9206.34,4788.37 9179.89,4788.37 9153.43,4788.37 9126.98,4788.37 9100.52,4788.37 9074.07,4788.37 9047.61,4788.37 9021.16,4788.37 8994.7,4788.37 8968.25,4761.91 8968.25,4735.46 8968.25,4709 8968.25,4682.55 8968.25,4656.09 8968.25,4629.64 8968.25,4603.18 8968.25,4576.73 8968.25,4550.27 8968.25,4523.82 8968.25,4497.36 8968.25,4470.91 8968.25,4444.45 8968.25,4418 8968.25,4391.54 8968.25,4365.09 8968.25,4338.63 8968.25,4312.18 8968.25,4285.72 8968.25,4259.27 8968.25,4232.81 8968.25,4206.36 8968.25,4179.9 8968.25,4153.45 8968.25,4126.99 8968.25,4100.54 8968.25,4074.08 8968.25,4047.63 8968.25,4021.17 8968.25,3994.72 8968.25,3968.26 8968.25,3941.81 8968.25,3915.35 8968.25,3888.9 8968.25,3862.44 8968.25,3835.99 8968.25,3809.53 8968.25,3783.08 8968.25,3756.62 8968.25,3730.17 8968.25,3703.71 8968.25,3677.26 8968.25,3650.8 8968.25,3624.35 8968.25,3597.89 8968.25,3571.44 8968.25,3544.98 8968.25,3518.53 8968.25,3492.07 8968.25,3465.62 8968.25,3439.16 8968.25,3412.71 8968.25,3386.25 8968.25,3359.8 8968.25,3333.34 8968.25,3306.89 8968.25,3280.43 8968.25,3253.98 8968.25,3227.52 8968.25,3201.07 8968.25,3174.61 8968.25,3148.16 8968.25,3121.7 8968.25,3095.25 8968.25,3068.79 8968.25,3042.34 8968.25,3015.88 8968.25,2989.43 8968.25,2962.97 8968.25,2936.52 8968.25,2910.06 8968.25,2883.61 8968.25,2857.15 8968.25,2830.7 8968.25,2804.24 8968.25,2777.79 8968.25,2751.33 8968.25,2724.88 8968.25,2698.42 8968.25,2671.96 8968.25,2645.51 8968.25,2619.05 8968.25,2592.6 8968.25,2566.14 8968.25,2539.69 8968.25,2513.23 8968.25,2486.78 8968.25,2460.32 8968.25,2433.87 8968.25,2407.41 8968.25,2380.96 8968.25,2354.5 8968.25,2328.05 8968.25,2301.59 8968.25,2275.14 8968.25,2248.68 8968.25,2222.23 8994.7,2195.77 9021.16,2195.77 9047.61,2195.77 9074.07,2195.77 9100.52,2195.77 9126.98,2195.77 9153.43,2195.77 9179.89,2195.77 9206.34,2195.77 9232.8,2195.77 9259.25,2195.77 9285.71,2195.77 9312.16,2195.77 9338.62,2195.77 9365.07,2195.77 9391.53,2195.77 9417.98,2195.77 9444.44,2195.77 9470.89,2195.77 9497.35,2195.77 9523.8,2169.32 9523.8,2142.86 9523.8,2116.41 9523.8,2089.95 9523.8,2063.5 9523.8,2037.04 9523.8,2010.59 9523.8,1984.13 9523.8,1957.68 9523.8,1931.22 9523.8,1904.77 9523.8,1878.31 9523.8,1851.86 9523.8,1825.4 9523.8,1798.95 9523.8,1772.49 9523.8,1746.04 9523.8,1719.58 9523.8,1693.13 9523.8,1666.67 9523.8,1640.22 9523.8,1613.76 9523.8,1587.31 9523.8,1560.85 9523.8,1534.4 9523.8,1507.94 9523.8,1481.49 9523.8,1455.03 9523.8,1428.58 9523.8,1402.12 9523.8,1375.67 9523.8,1349.21 9523.8,1322.76 9523.8,1296.3 9523.8,1269.85 9523.8,1243.39 9523.8,1216.94 9523.8,1190.48 9523.8,1164.03 9497.35,1137.57 9470.89,1137.57 9444.44,1137.57 9417.98,1137.57 9391.53,1137.57 9365.07,1137.57 9338.62,1137.57 9312.16,1137.57 9285.71,1137.57 9259.25,1137.57 9232.8,1137.57 9206.34,1137.57 9179.89,1137.57 9153.43,1137.57 9126.98,1137.57 9100.52,1137.57 9074.07,1137.57 9047.61,1137.57 9021.16,1137.57 8994.7,1137.57 8968.25,1111.12 8968.25,1084.66 8968.25,1058.21 8968.25,1031.75 8968.25,1005.3 8968.25,978.84 8968.25,952.39 8968.25,925.93 8968.25,899.48 8968.25,873.02 8968.25,846.57 8968.25,820.11 8968.25,793.66 8968.25,767.2 8968.25,740.75 8968.25,714.29 8968.25,687.84 8968.25,661.38 8968.25,634.93 8968.25,608.47 8968.25,582.02 8968.25,555.56 8968.25,529.11 8968.25,502.65 8968.25,476.2 8968.25,449.74 8968.25,423.29 8968.25,396.83 8968.25,370.38 8968.25,343.92 8968.25,317.47 8968.25,291.01 8968.25,264.56 8968.25,238.1 8968.25,211.65 8968.25,185.19 8968.25,158.74 8968.25,132.28 8968.25,105.83 8968.25,79.37 8941.79,52.92 8915.34,52.92 8888.88,52.92 8862.43,52.92 8835.97,52.92 8809.52,52.92 8783.06,52.92 8756.61,52.92 8730.15,52.92 8703.7,52.92 8677.24,52.92 8650.79,52.92 8624.33,52.92 8597.88,52.92 8571.42,52.92 8544.97,52.92 8518.51,52.92 8492.06,52.92 8465.6,52.92 8439.15,52.92 8412.69,52.92 8386.24,52.92 8359.78,52.92 8333.33,52.92 8306.87,52.92 8280.42,52.92 8253.96,52.92 8227.51,52.92 8201.05,52.92 8174.6,52.92 8148.14,52.92 8121.69,52.92 8095.23,52.92 8068.78,52.92 8042.32,52.92 8015.87,52.92 7989.41,52.92 7962.96,52.92 7936.5,52.92 7910.05,52.92 7883.59,52.92 7857.14,52.92 7830.68,52.92 7804.23,52.92 7777.77,52.92 7751.32,52.92 7724.86,52.92 7698.41,52.92 7671.95,52.92 7645.5,52.92 7619.04,52.92 7592.59,52.92 7566.13,52.92 7539.68,52.92 7513.22,52.92 7486.77,52.92 7460.31,52.92 7433.86,52.92 7407.4,52.92 7380.95,52.92 7354.49,52.92 7328.04,52.92 7301.58,52.92 7275.13,52.92 7248.67,52.92 7222.22,52.92 7195.76,52.92 7169.31,52.92 7142.85,52.92 7116.4,52.92 7089.94,52.92 7063.49,52.92 7037.03,52.92 7010.58,52.92 6984.12,52.92 6957.67,52.92 6931.21,52.92 6904.76,52.92 6878.3,52.92 6851.85,52.92 6825.39,52.92 6798.94,52.92 6772.48,52.92 6746.03,52.92 6719.57,52.92 6693.12,52.92 6666.66,52.92 6640.21,52.92 6613.75,52.92 6587.3,52.92 6560.84,52.92 6534.39,52.92 6507.93,52.92 6481.48,52.92 6455.02,52.92 6428.57,52.92 6402.11,52.92 6375.66,52.92 6349.2,52.92 6322.75,52.92 6296.29,52.92 6269.84,52.92 6243.38,52.92 6216.93,52.92 6190.47,52.92 6164.02,52.92 6137.56,52.92 6111.11,52.92 6084.65,52.92 6058.2,52.92 6031.74,52.92 6005.29,52.92 5978.83,52.92 5952.38,52.92 5925.92,52.92 5899.47,52.92 5873.01,52.92 5846.56,52.92 5820.1,52.92 5793.65,52.92 5767.19,52.92 5740.74,52.92 5714.28,52.92 5687.83,52.92 5661.37,52.92 5634.92,52.92 5608.46,52.92 5582.01,52.92 5555.55,52.92 5529.1,52.92 5502.64,52.92 5476.19,52.92 5449.73,52.92 5423.28,52.92 5396.82,52.92 5370.37,52.92 5343.91,52.92 5317.46,52.92 5291,52.92 5264.55,52.92 5238.09,52.92 5211.64,52.92 5185.18,52.92 5158.73,52.92 5132.27,52.92 5105.82,52.92 5079.36,52.92 5052.91,52.92 5026.45,52.92 5000,52.92 4973.54,52.92 4947.09,52.92 4920.63,52.92 4894.18,52.92 4867.72,52.92 4841.27,52.92 4814.81,52.92 4788.36,52.92 4761.9,52.92 4735.45,52.92 4709,52.92 4682.54,52.92 4656.09,52.92 4629.63,52.92 4603.18,52.92 4576.72,52.92 4550.27,52.92 4523.81,52.92 4497.36,52.92 4470.9,52.92 4444.45,52.92 4417.99,52.92 4391.54,52.92 4365.08,52.92 4338.63,52.92 4312.17,52.92 4285.72,52.92 4259.26,52.92 4232.81,52.92 4206.35,52.92 4179.9,52.92 4153.44,52.92 4126.99,52.92 4100.53,52.92 4074.08,52.92 4047.62,52.92 4021.17,52.92 3994.71,52.92 3968.26,52.92 3941.8,52.92 3915.35,52.92 3888.89,52.92 3862.44,52.92 3835.98,52.92 3809.53,52.92 3783.07,52.92 3756.62,52.92 3730.16,52.92 3703.71,52.92 3677.25,52.92 3650.8,52.92 3624.34,52.92 3597.89,52.92 3571.43,52.92 3544.98,52.92 3518.52,52.92 3492.07,52.92 3465.61,52.92 3439.16,52.92 3412.7,52.92 3386.25,52.92 3359.79,52.92 3333.34,52.92 3306.88,52.92 3280.43,52.92 3253.97,52.92 3227.52,52.92 3201.06,52.92 3174.61,52.92 3148.15,52.92 3121.7,52.92 3095.24,52.92 3068.79,52.92 3042.33,52.92 3015.88,52.92 2989.42,52.92 2962.97,52.92 2936.51,52.92 2910.06,52.92 2883.6,52.92 2857.15,52.92 2830.69,52.92 2804.24,52.92 2777.78,52.92 2751.33,52.92 2724.87,52.92 2698.42,52.92 2671.96,52.92 2645.51,52.92 2619.05,52.92 2592.6,52.92 2566.14,52.92 2539.69,52.92 2513.23,52.92 2486.78,52.92 2460.32,52.92 2433.87,52.92 2407.41,52.92 2380.96,52.92 2354.5,52.92 2328.05,52.92 2301.59,52.92 2275.14,52.92 2248.68,52.92 2222.23,52.92 2195.77,52.92 2169.32,52.92 2142.86,52.92 2116.41,52.92 2089.95,52.92 2063.5,52.92 2037.04,52.92 2010.59,52.92 1984.13,52.92 1957.68,52.92 1931.22,52.92 1904.77,52.92 1878.31,52.92 1851.86,52.92 1825.4,52.92 1798.95,52.92 1772.49,52.92 1746.04,52.92 1719.58,52.92 1693.13,52.92 1666.67,52.92 1640.22,52.92 1613.76,52.92 1587.31,52.92 1560.85,52.92 1534.4,52.92 1507.94,52.92 1481.49,52.92 1455.03,52.92 1428.58,52.92 1402.12,52.92 1375.67,52.92 1349.21,52.92 1322.76,52.92 1296.3,52.92 1269.85,52.92 1243.39,52.92 1216.94,52.92 1190.48,52.92 1164.03,52.92 1137.57,52.92 1111.12,52.92 1084.66,52.92 1058.21,52.92 1031.75,52.92 1005.3,52.92 978.84,52.92 952.39,52.92 925.93,52.92 899.48,52.92 873.02,52.92 846.57,52.92 820.11,52.92 793.66,52.92 767.2,52.92 740.75,52.92 714.29,52.92 687.84,52.92 661.38,52.92 634.93,52.92 608.47,52.92 582.02,52.92 555.56,52.92 529.11,52.92 502.65,52.92 476.2,52.92 449.74,52.92 423.29,52.92 396.83,52.92 370.38,52.92 343.92,52.92 317.47,52.92 291.01,52.92 264.56,52.92 238.1,52.92 211.65,52.92 185.19,52.92 158.74,52.92 132.28,52.92 105.83,52.92 "/>
   <polygon class="fil0 str0" points="6851.85,582.02 6825.39,608.47 6825.39,634.93 6825.39,661.38 6825.39,687.84 6825.39,714.29 6825.39,740.75 6825.39,767.2 6825.39,793.66 6825.39,820.11 6825.39,846.57 6825.39,873.02 6825.39,899.48 6825.39,925.93 6825.39,952.39 6825.39,978.84 6825.39,1005.3 6825.39,1031.75 6825.39,1058.21 6825.39,1084.66 6825.39,1111.12 6851.85,1137.57 6878.3,1137.57 6904.76,1137.57 6931.21,1137.57 6957.67,1137.57 6984.12,1137.57 7010.58,1137.57 7037.03,1137.57 7063.49,1137.57 7089.94,1137.57 7116.4,1137.57 7142.85,1137.57 7169.31,1137.57 7195.76,1137.57 7222.22,1137.57 7248.67,1137.57 7275.13,1137.57 7301.58,1137.57 7328.04,1137.57 7354.49,1137.57 7380.95,1137.57 7407.4,1137.57 7433.86,1137.57 7460.31,1137.57 7486.77,1137.57 7513.22,1137.57 7539.68,1137.57 7566.13,1137.57 7592.59,1137.57 7619.04,1137.57 7645.5,1137.57 7671.95,1137.57 7698.41,1137.57 7724.86,1137.57 7751.32,1137.57 7777.77,1137.57 7804.23,1137.57 7830.68,1137.57 7857.14,1137.57 7883.59,1137.57 7910.05,1111.12 7910.05,1084.66 7910.05,1058.21 7910.05,1031.75 7910.05,1005.3 7910.05,978.84 7910.05,952.39 7910.05,925.93 7910.05,899.48 7910.05,873.02 7910.05,846.57 7910.05,820.11 7910.05,793.66 7910.05,767.2 7910.05,740.75 7910.05,714.29 7910.05,687.84 7910.05,661.38 7910.05,634.93 7910.05,608.47 7883.59,582.02 7857.14,582.02 7830.68,582.02 7804.23,582.02 7777.77,582.02 7751.32,582.02 7724.86,582.02 7698.41,582.02 7671.95,582.02 7645.5,582.02 7619.04,582.02 7592.59,582.02 7566.13,582.02 7539.68,582.02 7513.22,582.02 7486.77,582.02 7460.31,582.02 7433.86,582.02 7407.4,582.02 7380.95,582.02 7354.49,582.02 7328.04,582.02 7301.58,582.02 7275.13,582.02 7248.67,582.02 7222.22,582.02 7195.76,582.02 7169.31,582.02 7142.85,582.02 7116.4,582.02 7089.94,582.02 7063.49,582.02 7037.03,582.02 7010.58,582.02 6984.12,582.02 6957.67,582.02 6931.21,582.02 6904.76,582.02 6878.3,582.02 "/>
   <polygon class="fil0 str0" points="1164.03,582.02 1137.57,608.47 1137.57,634.93 1137.57,661.38 1137.57,687.84 1137.57,714.29 1137.57,740.75 1137.57,767.2 1137.57,793.66 1137.57,820.11 1137.57,846.57 1137.57,873.02 1137.57,899.48 1137.57,925.93 1137.57,952.39 1137.57,978.84 1137.57,1005.3 1137.57,1031.75 1137.57,1058.21 1137.57,1084.66 1137.57,1111.12 1164.03,1137.57 1190.48,1137.57 1216.94,1137.57 1243.39,1137.57 1269.85,1137.57 1296.3,1137.57 1322.76,1137.57 1349.21,1137.57 1375.67,1137.57 1402.12,1137.57 1428.58,1137.57 1455.03,1137.57 1481.49,1137.57 1507.94,1137.57 1534.4,1137.57 1560.85,1137.57 1587.31,1137.57 1613.76,1137.57 1640.22,1137.57 1666.67,1137.57 1693.13,1137.57 1719.58,1137.57 1746.04,1137.57 1772.49,1137.57 1798.95,1137.57 1825.4,1137.57 1851.86,1137.57 1878.31,1137.57 1904.77,1137.57 1931.22,1137.57 1957.68,1137.57 1984.13,1137.57 2010.59,1137.57 2037.04,1137.57 2063.5,1137.57 2089.95,1137.57 2116.41,1137.57 2142.86,1137.57 2169.32,1137.57 2195.77,1111.12 2195.77,1084.66 2195.77,1058.21 2195.77,1031.75 2195.77,1005.3 2195.77,978.84 2195.77,952.39 2195.77,925.93 2195.77,899.48 2195.77,873.02 2195.77,846.57 2195.77,820.11 2195.77,793.66 2195.77,767.2 2195.77,740.75 2195.77,714.29 2195.77,687.84 2195.77,661.38 2195.77,634.93 2195.77,608.47 2169.32,582.02 2142.86,582.02 2116.41,582.02 2089.95,582.02 2063.5,582.02 2037.04,582.02 2010.59,582.02 1984.13,582.02 1957.68,582.02 1931.22,582.02 1904.77,582.02 1878.31,582.02 1851.86,582.02 1825.4,582.02 1798.95,582.02 1772.49,582.02 1746.04,582.02 1719.58,582.02 1693.13,582.02 1666.67,582.02 1640.22,582.02 1613.76,582.02 1587.31,582.02 1560.85,582.02 1534.4,582.02 1507.94,582.02 1481.49,582.02 1455.03,582.02 1428.58,582.02 1402.12,582.02 1375.67,582.02 1349.21,582.02 1322.76,582.02 1296.3,582.02 1269.85,582.02 1243.39,582.02 1216.94,582.02 1190.48,582.02 "/>
   <polygon class="fil0 str0" points="4021.17,582.02 3994.71,608.47 3994.71,634.93 3994.71,661.38 3994.71,687.84 3994.71,714.29 3994.71,740.75 3994.71,767.2 3994.71,793.66 3994.71,820.11 3994.71,846.57 3994.71,873.02 3994.71,899.48 3994.71,925.93 3994.71,952.39 3994.71,978.84 3994.71,1005.3 3994.71,1031.75 3994.71,1058.21 3994.71,1084.66 3994.71,1111.12 4021.17,1137.57 4047.62,1137.57 4074.08,1137.57 4100.53,1137.57 4126.99,1137.57 4153.44,1137.57 4179.9,1137.57 4206.35,1137.57 4232.81,1137.57 4259.26,1137.57 4285.72,1137.57 4312.17,1137.57 4338.63,1137.57 4365.08,1137.57 4391.54,1137.57 4417.99,1137.57 4444.45,1137.57 4470.9,1137.57 4497.36,1137.57 4523.81,1137.57 4550.27,1137.57 4576.72,1137.57 4603.18,1137.57 4629.63,1137.57 4656.09,1137.57 4682.54,1137.57 4709,1137.57 4735.45,1137.57 4761.9,1137.57 4788.36,1137.57 4814.81,1137.57 4841.27,1137.57 4867.72,1137.57 4894.18,1137.57 4920.63,1137.57 4947.09,1137.57 4973.54,1137.57 5000,1137.57 5026.45,1137.57 5052.91,1111.12 5052.91,1084.66 5052.91,1058.21 5052.91,1031.75 5052.91,1005.3 5052.91,978.84 5052.91,952.39 5052.91,925.93 5052.91,899.48 5052.91,873.02 5052.91,846.57 5052.91,820.11 5052.91,793.66 5052.91,767.2 5052.91,740.75 5052.91,714.29 5052.91,687.84 5052.91,661.38 5052.91,634.93 5052.91,608.47 5026.45,582.02 5000,582.02 4973.54,582.02 4947.09,582.02 4920.63,582.02 4894.18,582.02 4867.72,582.02 4841.27,582.02 4814.81,582.02 4788.36,582.02 4761.9,582.02 4735.45,582.02 4709,582.02 4682.54,582.02 4656.09,582.02 4629.63,582.02 4603.18,582.02 4576.72,582.02 4550.27,582.02 4523.81,582.02 4497.36,582.02 4470.9,582.02 4444.45,582.02 4417.99,582.02 4391.54,582.02 4365.08,582.02 4338.63,582.02 4312.17,582.02 4285.72,582.02 4259.26,582.02 4232.81,582.02 4206.35,582.02 4179.9,582.02 4153.44,582.02 4126.99,582.02 4100.53,582.02 4074.08,582.02 4047.62,582.02 "/>
  </g>
 </g>
</svg>
